<svg xmlns="http://www.w3.org/2000/svg" viewBox="0 0 230 120">
  <defs>
    <linearGradient id="bodyBlue" x1="0" y1="0" x2="1" y2="1">
      <stop offset="0" stop-color="#2f6fca"/>
      <stop offset="1" stop-color="#153f8f"/>
    </linearGradient>

    <linearGradient id="cabBlue" x1="0" y1="0" x2="1" y2="1">
      <stop offset="0" stop-color="#3b8cff"/>
      <stop offset="1" stop-color="#1f5fbf"/>
    </linearGradient>
  </defs>

  <g transform="translate(18 18)">
    
    <!-- talp -->
    <rect x="0" y="68" width="190" height="4" rx="2" fill="#dce9ff" opacity="0.7"/>

    <!-- raktér -->
    <rect x="8" y="20" width="116" height="45" rx="2" fill="url(#bodyBlue)"/>

    <!-- fülke -->
    <path d="M124 26h26c9 0 16 7 16 16v23h-42z" fill="url(#cabBlue)"/>

    <!-- ablak -->
    <path d="M136 33h14a4 4 0 0 1 4 4v12h-18z" fill="#eaf2ff"/>

    <!-- VILLÁM - BAL FELSŐ SAROKBÓL -->
    <path d="
      M8 20
      L70 20
      L45 38
      L95 38
      L35 65
      L60 45
      L8 45
      Z"
      fill="#ffffff"
      opacity="0.95"/>

    <!-- kerekek -->
    <circle cx="34" cy="69" r="11" fill="#d92f39"/>
    <circle cx="34" cy="69" r="5" fill="#eaf2ff"/>

    <circle cx="146" cy="69" r="11" fill="#d92f39"/>
    <circle cx="146" cy="69" r="5" fill="#eaf2ff"/>

  </g>
</svg>